<svg xmlns="http://www.w3.org/2000/svg" viewBox="0 0 720 200" width="720" height="200" role="img" aria-label="Internships posted per week, last 16 weeks"><title>Internships posted per week</title><g font-family="-apple-system,Segoe UI,Roboto,sans-serif" font-size="11"><line x1="38" y1="174.0" x2="706" y2="174.0" stroke="#30363d" stroke-width="1"/><text x="32" y="178.0" text-anchor="end" fill="#8b949e">0</text><line x1="38" y1="98.0" x2="706" y2="98.0" stroke="#30363d" stroke-width="1"/><text x="32" y="102.0" text-anchor="end" fill="#8b949e">27</text><line x1="38" y1="22.0" x2="706" y2="22.0" stroke="#30363d" stroke-width="1"/><text x="32" y="26.0" text-anchor="end" fill="#8b949e">54</text><path d="M38.0,174 L38.0,165.6 L82.5,165.6 L127.1,165.6 L171.6,159.9 L216.1,165.6 L260.7,103.6 L305.2,137.4 L349.7,143.0 L394.3,131.8 L438.8,61.4 L483.3,120.5 L527.9,72.7 L572.4,53.0 L616.9,75.5 L661.5,22.0 L706.0,162.7 L706.0,174 Z" fill="#2f81f7" fill-opacity="0.12"/><polyline points="38.0,165.6 82.5,165.6 127.1,165.6 171.6,159.9 216.1,165.6 260.7,103.6 305.2,137.4 349.7,143.0 394.3,131.8 438.8,61.4 483.3,120.5 527.9,72.7 572.4,53.0 616.9,75.5 661.5,22.0 706.0,162.7" fill="none" stroke="#2f81f7" stroke-width="2" stroke-linejoin="round" stroke-linecap="round"/><circle cx="661.5" cy="22.0" r="3.5" fill="#2f81f7"/><text x="661.5" y="13.0" text-anchor="middle" fill="#e6edf3" font-weight="600">54</text><circle cx="706.0" cy="162.7" r="3.5" fill="#2f81f7"/><text x="706.0" y="153.7" text-anchor="middle" fill="#e6edf3" font-weight="600">4</text><text x="38.0" y="192" text-anchor="middle" fill="#8b949e">Apr 27</text><text x="216.1" y="192" text-anchor="middle" fill="#8b949e">May 25</text><text x="394.3" y="192" text-anchor="middle" fill="#8b949e">Jun 22</text><text x="572.4" y="192" text-anchor="middle" fill="#8b949e">Jul 20</text><text x="706.0" y="192" text-anchor="middle" fill="#8b949e">Aug 10</text></g></svg>